<svg id="Layer_1" data-name="Layer 1" xmlns="http://www.w3.org/2000/svg" viewBox="0 0 178 56"><defs><style>.cls-1{isolation:isolate;}.cls-2{fill:#586bb2;}</style></defs><g class="cls-1"><path class="cls-2" d="M0,48V8A8,8,0,0,1,8,0H54a2,2,0,0,1,2,2V54a2,2,0,0,1-2,2H8A8,8,0,0,1,0,48Zm46.72-2.85L40.29,32.29a2.14,2.14,0,0,0-.37-.52l-2.38-2.38a2,2,0,0,1,0-2.78l2.38-2.38a2.14,2.14,0,0,0,.37-.52l6.43-12.86A2,2,0,0,0,45,8H41.22a2,2,0,0,0-1.76,1.09L32.54,22.91A2,2,0,0,1,30.78,24H10a2,2,0,0,0-2,2V46a2,2,0,0,0,2,2H14a2,2,0,0,0,2-2V34a2,2,0,0,1,2-2H30.78a2,2,0,0,1,1.76,1.09l6.92,13.82A2,2,0,0,0,41.22,48H45A2,2,0,0,0,46.72,45.15ZM16,14V10a2,2,0,0,0-2-2H10a2,2,0,0,0-2,2V14a2,2,0,0,0,2,2H14A2,2,0,0,0,16,14Z"/><path class="cls-2" d="M61,54V2a2,2,0,0,1,2-2H115a2,2,0,0,1,2,2V54a2,2,0,0,1-2,2H63A2,2,0,0,1,61,54Zm46.57-8.88-5.93-11.88A2,2,0,0,1,102,31l6.42-6.42a2,2,0,0,0,.58-1.4V16.82a2,2,0,0,0-.58-1.4l-6.84-6.84a2,2,0,0,0-1.4-.58H71a2,2,0,0,0-2,2V14a2,2,0,0,0,2,2H96.18a2,2,0,0,1,1.4.58l2,2a2,2,0,0,1,0,2.78l-2,2a2,2,0,0,1-1.4.58H71a2,2,0,0,0-2,2V43.24a2,2,0,0,0,3.36,1.4l4.06-4.06a2,2,0,0,0,.58-1.4V34a2,2,0,0,1,2-2H91.78a2,2,0,0,1,1.76,1.09l6.92,13.82A2,2,0,0,0,102.22,48h3.59A2,2,0,0,0,107.57,45.15Z"/><path class="cls-2" d="M122,54V2a2,2,0,0,1,2-2h46a8,8,0,0,1,8,8V48a8,8,0,0,1-8,8H124A2,2,0,0,1,122,54Zm43.36-9.39,4.06-4.06a2,2,0,0,0,.58-1.4V16.82a2,2,0,0,0-.58-1.4l-6.84-6.84a2,2,0,0,0-1.4-.58H138.82a2,2,0,0,0-1.4.58l-4.06,4.06a2,2,0,0,0,1.4,3.36h22.42a2,2,0,0,1,1.4.58l2.84,2.84a2,2,0,0,1,.58,1.4V43.24A2,2,0,0,0,165.36,44.64Zm-32,0,4.06-4.06a2,2,0,0,0,.58-1.4V26a2,2,0,0,0-2-2H132a2,2,0,0,0-2,2V43.24A2,2,0,0,0,133.36,44.64Z"/></g></svg>